<svg xmlns="http://www.w3.org/2000/svg" viewBox="0 0 256 256">
  <circle cx="128" cy="128" r="128" fill="#FFD700"/>
  <circle cx="128" cy="128" r="100" fill="#FFA500"/>
  <circle cx="95" cy="105" r="12" fill="#333"/>
  <circle cx="161" cy="105" r="12" fill="#333"/>
  <path d="M 85 140 Q 128 175 171 140" stroke="#333" stroke-width="8" fill="none" stroke-linecap="round"/>
  <polygon points="128,20 135,40 156,43 142,57 145,78 128,68 111,78 114,57 100,43 121,40" fill="#FFD700"/>
  <polygon points="30,80 35,92 48,94 39,103 41,116 30,110 19,116 21,103 12,94 25,92" fill="#FFD700"/>
  <polygon points="226,80 231,92 244,94 235,103 237,116 226,110 215,116 217,103 208,94 221,92" fill="#FFD700"/>
  <polygon points="40,200 45,212 58,214 49,223 51,236 40,230 29,236 31,223 22,214 35,212" fill="#FFA500"/>
  <polygon points="216,200 221,212 234,214 225,223 227,236 216,230 205,236 207,223 198,214 211,212" fill="#FFA500"/>
</svg>